<svg xmlns="http://www.w3.org/2000/svg" width="38" height="38" viewBox="0 0 38 38"><path fill-rule="evenodd" clip-rule="evenodd" fill="#fff" d="M19 .486C29.226.486 37.514 8.774 37.514 19c0 10.225-8.288 18.514-18.514 18.514S.486 29.224.486 19C.486 8.774 8.774.486 19 .486z"/><path fill="#333" d="M19 0C8.506 0 0 8.506 0 19s8.506 19 19 19 19-8.506 19-19S29.494 0 19 0zm0 34.75C10.3 34.75 3.25 27.7 3.25 19S10.3 3.25 19 3.25 34.75 10.3 34.75 19 27.7 34.75 19 34.75zm.003-2.335c-4.466 0-8.42-2.144-10.855-5.44.233-.27.545-.528.964-.727 1.573-.74 2.373-.887 2.43-.917.046-.025 2.68-.717 3.89-1.374.285-.183.464-.32.464-.32v-1.255c-4.1.037-5.305-1.72-5.305-1.72s2.342-.035 2.198-6.214c-.145-6.18 2.705-7.202 3.767-7.606 3.09-1.175 4.645.695 4.645.695 3.583-.33 4.574 3.584 4.134 8.045-.44 4.46 2.01 5.153 2.01 5.153-1.685 1.72-5.232 1.61-5.232 1.61V23.653s.18.136.464.317c1.208.657 3.843 1.35 3.892 1.375.055.03.855.18 2.43.918.414.193.724.45.957.718-2.437 3.294-6.39 5.435-10.852 5.435z"/></svg>