<svg xmlns="http://www.w3.org/2000/svg" width="38" height="38" viewBox="0 0 38 38"><path fill="#333" d="M19 0C8.5 0 0 8.5 0 19s8.54 19 19 19 19-8.5 19-19S29.5 0 19 0zm10.706 28.807c-2.82-2.043-5.435-3.35-6.048-3.678-.08-.042-.123-.123-.123-.205 0-.45 0-1.676 0-2.288.327-.694.53-1.47.654-2.166.325.206.815.083 1.39-1.92.448-1.634.162-2.165-.206-2.328 1.308-6.17-1.676-6.416-1.676-6.416s-.45-.858-1.635-1.512c-.775-.45-1.878-.817-3.31-.695-.45.04-.898.122-1.307.245-.53.164-1.02.45-1.47.736-.532.327-1.063.777-1.513 1.226-.694.736-1.348 1.676-1.634 2.86-.247.98-.247 2.084.12 3.187-.53-.04-1.143.245-.57 2.33.45 1.51.816 1.96 1.143 1.96.122.858.408 1.84.94 2.738v2.003c0 .082-.042.163-.124.204-.614.286-3.23 1.635-6.048 3.637-2.37-2.574-3.8-6.006-3.8-9.807C4.495 10.91 10.992 4.413 19 4.413S33.505 10.99 33.505 19c0 3.76-1.43 7.232-3.8 9.807z"/><circle fill="none" stroke="#fff" stroke-width="2" stroke-miterlimit="10" cx="19.206" cy="18.366" r="14.18"/></svg>