<svg xmlns="http://www.w3.org/2000/svg" width="76" height="65" viewBox="0 0 76 65"><path fill="#333" d="M50.298 0L41.24 2.708 39.79 7.903l7.01 5.625c-4.962 2.07-8.73 5.944-10.876 10.597-7.574-2.838-16.32-1.004-22.2 4.94l-2.713-8.59-5.175-.833L0 27.115l1.81 5.147 8.966.577c-5.573 9.043-3.634 21.002 4.896 27.697 9.144 7.178 22.355 5.495 29.453-3.596 1.02-1.31 1.89-2.737 2.546-4.213 4.147 1.517 8.845 1.848 13.4.456 11.06-3.37 17.354-15.08 14.05-26.247-3.128-10.28-13.403-16.484-23.748-14.663l2.774-8.632L50.298 0zm-.493 1.104L48.6 3.76l-2.272-1.534 3.477-1.122zm-7.64 2.327l3.22-.95-1.28 2.597-1.94-1.646zm2.663 2.465L46.11 3.3l2.27 1.534-3.552 1.06zm4.005-.21l.57 6.41-1.08.272-3.063-5.76 3.573-.923zM41.717 4.32l2.167 1.825-2.886.84.72-2.665zm-.388 3.672l3.084-.936 3.062 5.76-.137.017-6.01-4.84zM12.643 29.337L8.43 24.415l1.925-2.465 2.29 7.387zm-.602.77l-.72.924-5.778-2.918 2.287-2.927 4.212 4.922zM9.648 21.27l-1.806 2.31-.077-.06-.257.17-.563-2.927 2.703.507zm-3.586-.33l.488 2.867-2.774.06 2.286-2.926zm.878 3.796l-2.285 2.927-.487-2.867 2.772-.06zm-3.765-.098l.488 2.866-2.533-.247 2.045-2.62zm-1.928 3.58l2.808.215L2.19 30.82l-.943-2.602zm1.71 3.207l1.985-2.542L10.72 31.8l-.06.077-7.703-.452zm43.765 20.93c-.673 1.34-1.48 2.692-2.442 3.924-6.796 8.703-19.4 10.24-28.083 3.428-8.684-6.815-10.28-19.375-3.422-28.157 5.474-7.01 14.775-9.4 22.716-6.396-.49 1.105-.768 2.255-1.044 3.403-6.49-2.484-14.18-.57-18.69 5.208-5.535 7.088-4.342 17.465 2.803 23.075 7.07 5.55 17.42 4.354 23.014-2.81.843-1.08 1.47-2.2 1.96-3.306.105-.292.27-.66.372-.952.534-1.32.795-2.605.98-3.95.086-.43.112-.78.062-1.194.193-4.693-1.624-9.35-5.226-12.673.048-1.33.368-2.694.783-3.86.075.06.152.12.307.24 5.84 4.584 8.446 11.725 7.406 18.612-.026.352-.13.643-.157.996-.26 1.285-.598 2.51-1.09 3.615.02.14-.144.508-.248.798zm-4.032-2.294c-.492 1.107-1.12 2.23-1.962 3.307-5.233 6.703-14.958 7.89-21.644 2.644-6.686-5.248-7.87-15-2.64-21.7 4.35-5.41 11.63-7.274 17.766-4.817-.53 3.062-.344 6.314.605 9.544 1.39 4.568 4.22 8.404 7.875 11.024zm1.304-6.43c-1.664-1.68-2.968-3.82-3.678-6.242-.383-1.418-.626-2.85-.655-4.24 2.79 2.935 4.216 6.663 4.334 10.48zM40.86 27.007c1.725-4.113 5.21-7.466 9.768-8.86 8.112-2.452 16.742 2.21 19.19 10.343S67.62 45.277 59.506 47.73c-3.555 1.062-7.064.79-10.28-.487 1.13-7.317-1.603-14.928-7.828-19.814-.094-.2-.248-.32-.538-.422zm33.182.2c3.16 10.557-2.908 21.82-13.437 24.987-4.36 1.3-8.767 1.07-12.7-.4.414-1.166.83-2.33 1.09-3.62 3.29 1.342 7.073 1.577 10.765.5 8.584-2.582 13.517-11.755 11.002-20.44-2.578-8.604-11.728-13.552-20.388-11.03-4.83 1.426-8.438 4.932-10.282 9.2-.104.29-.267.66-.37.95-.415 1.166-.752 2.392-.877 3.662-.086.428-.036.84-.062 1.19-.057 1.82.16 3.606.65 5.358.84 2.895 2.466 5.413 4.574 7.316-.106 1.407-.35 2.832-.885 4.15-3.365-2.514-6.025-6.094-7.38-10.388-.916-2.954-1.01-6.01-.6-8.918.028-.35.132-.642.16-.995.275-1.15.553-2.298 1.045-3.404.102-.29.266-.66.446-.89 2.31-5.022 6.67-9.18 12.443-10.858 10.547-3.03 21.705 2.998 24.806 13.63zM50.347 11.843l-.572-6.413 2.948-.918-2.376 7.33zm2.26-8.292l-2.89.842-.27.033L50.65 1.77l1.957 1.78z"/></svg>