<?xml version="1.0" encoding="utf-8"?>
<!-- Generator: Adobe Illustrator 16.0.4, SVG Export Plug-In . SVG Version: 6.00 Build 0)  -->
<!DOCTYPE svg PUBLIC "-//W3C//DTD SVG 1.1//EN" "http://www.w3.org/Graphics/SVG/1.1/DTD/svg11.dtd">
<svg version="1.1" id="Layer_1" xmlns="http://www.w3.org/2000/svg" xmlns:xlink="http://www.w3.org/1999/xlink" x="0px" y="0px"
	 width="38px" height="38px" viewBox="0 0 38 38" enable-background="new 0 0 38 38" xml:space="preserve">
<path fill-rule="evenodd" clip-rule="evenodd" fill="#FFFFFF" d="M19,0.486c10.226,0,18.514,8.288,18.514,18.514
	c0,10.225-8.288,18.514-18.514,18.514S0.486,29.225,0.486,19C0.486,8.774,8.774,0.486,19,0.486L19,0.486z"/>
<path fill="#333333" d="M19,0C8.506,0,0,8.506,0,19s8.506,19,19,19s19-8.506,19-19S29.494,0,19,0L19,0z M19,34.75
	c-8.699,0-15.75-7.051-15.75-15.75S10.301,3.25,19,3.25S34.75,10.301,34.75,19S27.699,34.75,19,34.75L19,34.75z M19.003,32.415
	c-4.466,0-8.42-2.144-10.855-5.44c0.233-0.271,0.545-0.528,0.964-0.727c1.573-0.739,2.373-0.887,2.429-0.917
	c0.047-0.026,2.682-0.718,3.892-1.375c0.284-0.183,0.463-0.319,0.463-0.319v-1.256c-4.099,0.036-5.305-1.72-5.305-1.72
	s2.341-0.036,2.197-6.215c-0.145-6.181,2.705-7.202,3.767-7.606C19.646,5.665,21.2,7.535,21.2,7.535
	c3.583-0.331,4.574,3.584,4.134,8.045c-0.44,4.459,2.01,5.153,2.01,5.153c-1.685,1.72-5.232,1.611-5.232,1.611v1.123h0.001v0.185
	c0,0,0.179,0.136,0.463,0.317c1.208,0.658,3.843,1.351,3.892,1.376c0.055,0.029,0.855,0.179,2.429,0.918
	c0.415,0.193,0.725,0.449,0.958,0.718C27.418,30.274,23.466,32.415,19.003,32.415L19.003,32.415z"/>
</svg>
