<?xml version="1.0" encoding="utf-8"?>
<!-- Generator: Adobe Illustrator 16.0.4, SVG Export Plug-In . SVG Version: 6.00 Build 0)  -->
<!DOCTYPE svg PUBLIC "-//W3C//DTD SVG 1.1//EN" "http://www.w3.org/Graphics/SVG/1.1/DTD/svg11.dtd">
<svg version="1.1" id="Shape_2_1_" xmlns="http://www.w3.org/2000/svg" xmlns:xlink="http://www.w3.org/1999/xlink" x="0px" y="0px"
	 width="38px" height="38px" viewBox="0 0 38 38" enable-background="new 0 0 38 38" xml:space="preserve">
<path fill="#333333" d="M19,0C8.499,0,0,8.499,0,19s8.54,19,19,19s19-8.499,19-19S29.501,0,19,0z M29.706,28.807
	c-2.82-2.043-5.435-3.351-6.048-3.678c-0.081-0.041-0.123-0.122-0.123-0.204c0-0.45,0-1.676,0-2.288
	c0.327-0.694,0.531-1.471,0.654-2.166c0.326,0.205,0.816,0.082,1.39-1.92c0.449-1.635,0.163-2.166-0.205-2.329
	c1.308-6.17-1.676-6.416-1.676-6.416s-0.449-0.858-1.635-1.512c-0.775-0.449-1.878-0.817-3.309-0.695
	c-0.45,0.041-0.899,0.123-1.308,0.246l0,0c-0.531,0.164-1.021,0.449-1.471,0.736c-0.531,0.326-1.062,0.776-1.512,1.225
	c-0.694,0.736-1.348,1.676-1.634,2.86c-0.246,0.981-0.246,2.084,0.122,3.187c-0.531-0.04-1.144,0.245-0.572,2.329
	c0.45,1.512,0.817,1.961,1.144,1.961c0.122,0.858,0.408,1.84,0.939,2.738v1.43v0.572c0,0.082-0.041,0.163-0.123,0.204
	c-0.613,0.286-3.228,1.635-6.047,3.637c-2.37-2.574-3.8-6.006-3.8-9.807C4.495,10.91,10.992,4.413,19,4.413
	c8.008,0,14.505,6.578,14.505,14.587C33.505,22.76,32.076,26.232,29.706,28.807z"/>
<circle fill="none" stroke="#FFFFFF" stroke-width="2" stroke-miterlimit="10" cx="19.206" cy="18.366" r="14.18"/>
</svg>
