<?xml version="1.0" encoding="utf-8"?>
<!-- Generator: Adobe Illustrator 16.0.4, SVG Export Plug-In . SVG Version: 6.00 Build 0)  -->
<!DOCTYPE svg PUBLIC "-//W3C//DTD SVG 1.1//EN" "http://www.w3.org/Graphics/SVG/1.1/DTD/svg11.dtd">
<svg version="1.1" id="Layer_1" xmlns="http://www.w3.org/2000/svg" xmlns:xlink="http://www.w3.org/1999/xlink" x="0px" y="0px"
	 width="76px" height="65px" viewBox="0 0 76 65" enable-background="new 0 0 76 65" xml:space="preserve">
<path fill="#333333" d="M50.298,0l-9.057,2.708l-1.453,5.195l7.009,5.625c-4.961,2.069-8.73,5.944-10.875,10.597
	c-7.574-2.838-16.319-1.004-22.199,4.939l-2.714-8.59l-5.174-0.832L0,27.115l1.809,5.147l8.967,0.577
	c-5.573,9.044-3.634,21.003,4.896,27.698c9.144,7.178,22.355,5.495,29.453-3.596c1.021-1.31,1.89-2.738,2.546-4.214
	c4.146,1.517,8.844,1.848,13.4,0.456c11.06-3.371,17.353-15.081,14.049-26.247c-3.128-10.281-13.403-16.484-23.748-14.663
	l2.774-8.632L50.298,0L50.298,0z M49.805,1.104l-1.206,2.657l-2.271-1.535L49.805,1.104L49.805,1.104z M42.165,3.431l3.221-0.95
	l-1.282,2.596L42.165,3.431L42.165,3.431z M44.828,5.895l1.282-2.596l2.271,1.535L44.828,5.895L44.828,5.895L44.828,5.895z
	 M48.833,5.684l0.571,6.411l-1.08,0.272L45.26,6.608L48.833,5.684L48.833,5.684z M41.717,4.322l2.167,1.825l-2.886,0.84
	L41.717,4.322L41.717,4.322z M41.329,7.994l3.085-0.936l3.062,5.759l-0.137,0.018L41.329,7.994L41.329,7.994z M12.644,29.337
	l-4.213-4.922l1.924-2.465L12.644,29.337L12.644,29.337z M12.042,30.107l-0.721,0.924l-5.777-2.919l2.287-2.927L12.042,30.107
	L12.042,30.107z M9.648,21.27l-1.806,2.31l-0.077-0.06L7.508,23.69l-0.563-2.927L9.648,21.27L9.648,21.27z M6.062,20.941
	l0.488,2.866l-2.774,0.061L6.062,20.941L6.062,20.941z M6.94,24.736l-2.285,2.927l0,0l-0.487-2.867L6.94,24.736L6.94,24.736z
	 M3.175,24.638l0.488,2.866L1.13,27.257L3.175,24.638L3.175,24.638z M1.247,28.218l2.808,0.215l-1.866,2.388L1.247,28.218
	L1.247,28.218z M2.957,31.425l1.985-2.542l5.777,2.918l-0.06,0.076L2.957,31.425L2.957,31.425z M46.722,52.356
	c-0.673,1.338-1.48,2.691-2.442,3.923c-6.796,8.704-19.4,10.242-28.083,3.429c-8.684-6.815-10.279-19.375-3.422-28.157
	c5.474-7.011,14.775-9.4,22.716-6.397c-0.491,1.105-0.769,2.255-1.045,3.403c-6.489-2.484-14.181-0.569-18.691,5.208
	c-5.534,7.088-4.341,17.465,2.804,23.075c7.071,5.549,17.421,4.354,23.015-2.81c0.843-1.079,1.47-2.2,1.961-3.306
	c0.104-0.292,0.268-0.661,0.371-0.952c0.534-1.319,0.795-2.605,0.979-3.951c0.087-0.43,0.113-0.78,0.063-1.193
	c0.193-4.693-1.624-9.349-5.226-12.673c0.048-1.331,0.368-2.694,0.783-3.859c0.075,0.06,0.152,0.12,0.307,0.24
	c5.84,4.583,8.446,11.724,7.406,18.611c-0.026,0.352-0.131,0.643-0.157,0.996c-0.261,1.285-0.599,2.511-1.09,3.615
	C46.99,51.697,46.826,52.066,46.722,52.356L46.722,52.356z M42.69,50.061c-0.492,1.106-1.119,2.228-1.962,3.306
	c-5.233,6.703-14.958,7.889-21.644,2.644c-6.686-5.249-7.871-15-2.639-21.702c4.348-5.409,11.628-7.273,17.765-4.816
	c-0.53,3.062-0.344,6.314,0.605,9.544C36.205,43.605,39.034,47.441,42.69,50.061L42.69,50.061z M43.994,43.629
	c-1.664-1.679-2.968-3.818-3.678-6.241c-0.383-1.418-0.626-2.851-0.655-4.241C42.451,36.083,43.876,39.811,43.994,43.629
	L43.994,43.629z M40.86,27.008c1.725-4.113,5.209-7.466,9.768-8.859c8.112-2.453,16.742,2.208,19.19,10.342
	S67.62,45.276,59.506,47.73c-3.555,1.062-7.064,0.791-10.279-0.487c1.128-7.317-1.604-14.928-7.829-19.814
	C41.304,27.231,41.15,27.111,40.86,27.008L40.86,27.008z M74.042,27.209c3.16,10.556-2.908,21.819-13.437,24.986
	c-4.36,1.299-8.767,1.07-12.699-0.401c0.413-1.165,0.828-2.33,1.089-3.618c3.291,1.341,7.073,1.576,10.765,0.499
	c8.584-2.582,13.517-11.755,11.002-20.439c-2.578-8.605-11.728-13.553-20.388-11.032c-4.831,1.427-8.438,4.933-10.282,9.2
	c-0.104,0.291-0.267,0.66-0.371,0.952c-0.414,1.165-0.751,2.391-0.876,3.661c-0.086,0.428-0.036,0.84-0.062,1.191
	c-0.057,1.819,0.159,3.605,0.651,5.357c0.838,2.895,2.465,5.413,4.573,7.316c-0.106,1.406-0.351,2.831-0.885,4.15
	c-3.365-2.515-6.025-6.095-7.381-10.389c-0.915-2.954-1.008-6.011-0.598-8.918c0.027-0.351,0.131-0.642,0.158-0.995
	c0.276-1.148,0.554-2.297,1.046-3.403c0.102-0.291,0.266-0.66,0.446-0.89c2.31-5.022,6.67-9.179,12.443-10.858
	C59.783,10.549,70.941,16.576,74.042,27.209L74.042,27.209z M50.347,11.842l-0.572-6.413l2.948-0.917L50.347,11.842L50.347,11.842z
	 M52.607,3.55l-2.889,0.842l0,0l-0.272,0.033l1.205-2.656L52.607,3.55L52.607,3.55z"/>
</svg>
